<?xml version="1.0" encoding="utf-8"?>
<!-- Generator: Adobe Illustrator 17.0.0, SVG Export Plug-In . SVG Version: 6.00 Build 0)  -->
<!DOCTYPE svg PUBLIC "-//W3C//DTD SVG 1.1//EN" "http://www.w3.org/Graphics/SVG/1.1/DTD/svg11.dtd">
<svg version="1.1" id="Capa_1" xmlns="http://www.w3.org/2000/svg" xmlns:xlink="http://www.w3.org/1999/xlink" x="0px" y="0px"
	 width="18.151px" height="21.396px" viewBox="0 0 18.151 21.396" enable-background="new 0 0 18.151 21.396" xml:space="preserve">
<path fill="#231F20" d="M16.208,10.831c-0.599,0-1.129,0.279-1.486,0.707l-2.278-1.135c0.029-0.148,0.046-0.301,0.046-0.458
	c0-0.801-0.404-1.508-1.018-1.935l1.456-4.122c1.069-0.002,1.94-0.874,1.94-1.943c0-1.07-0.873-1.944-1.943-1.944
	s-1.944,0.873-1.944,1.943c0,0.732,0.413,1.364,1.013,1.695l-1.41,3.993c-0.147-0.029-0.298-0.046-0.452-0.046
	c-1.245,0-2.259,0.977-2.342,2.2l-4.002,0.937C3.54,9.936,2.811,9.358,1.943,9.358C0.872,9.358,0,10.231,0,11.302
	s0.873,1.943,1.943,1.943c0.934,0,1.718-0.666,1.902-1.547l4.079-0.956c0.322,0.884,1.152,1.522,2.138,1.552l0.243,5.46
	c-0.604,0.33-1.021,0.964-1.021,1.699c0,1.07,0.873,1.943,1.944,1.943c1.07,0,1.943-0.873,1.943-1.943
	c0-1.047-0.837-1.899-1.875-1.936l-0.24-5.405c0.409-0.175,0.757-0.464,1.009-0.825l2.238,1.116c-0.023,0.12-0.038,0.244-0.038,0.37
	c0,1.07,0.873,1.943,1.944,1.943c1.07,0,1.943-0.873,1.943-1.943S17.278,10.831,16.208,10.831z"/>
</svg>
