<?xml version="1.0" encoding="utf-8"?>
<!-- Generator: Adobe Illustrator 16.0.0, SVG Export Plug-In . SVG Version: 6.00 Build 0)  -->
<!DOCTYPE svg PUBLIC "-//W3C//DTD SVG 1.1//EN" "http://www.w3.org/Graphics/SVG/1.1/DTD/svg11.dtd">
<svg version="1.1" id="Layer_4" xmlns="http://www.w3.org/2000/svg" xmlns:xlink="http://www.w3.org/1999/xlink" x="0px" y="0px"
	 width="100px" height="100px" viewBox="0 0 100 100" enable-background="new 0 0 100 100" xml:space="preserve">
<path fill="#ffffff" d="M28.623,43.523c-3.916,0-7.102,3.186-7.102,7.102s3.186,7.102,7.102,7.102s7.102-3.186,7.102-7.102
	S32.539,43.523,28.623,43.523z M34.344,49.994v1.262c0,0.523-0.424,0.947-0.947,0.947h-3.253v3.078c0,0.523-0.425,0.947-0.947,0.947
	h-1.263c-0.522,0-0.946-0.424-0.946-0.947v-3.078h-2.901c-0.523,0-0.947-0.424-0.947-0.947v-1.262c0-0.523,0.424-0.947,0.947-0.947
	h2.901v-3.076c0-0.523,0.424-0.947,0.946-0.947h1.263c0.522,0,0.947,0.424,0.947,0.947v3.076h3.253
	C33.92,49.047,34.344,49.471,34.344,49.994z M70,36.707c-5.064,0-9.548,2.4-12.377,6.098c-2.26,0.477-4.795,0.801-7.621,0.818
	c-2.804,0.018-5.32-0.281-7.567-0.742C39.609,39.141,35.1,36.707,30,36.707c-8.561,0-15.5,6.828-15.5,15.25
	c0,1.072,0.115,2.117,0.329,3.127c0.377,6.971,1.997,21.707,8.029,27.453c7.267,6.92,16.929-18.76,16.929-18.76
	s2.044-2.404,10.462-2.404s10.037,2.518,10.037,2.518c0.624,2.027,9.876,25.33,16.895,18.646c6.127-5.836,7.703-21.16,8.048-27.783
	c0.171-0.908,0.271-1.84,0.271-2.797C85.5,43.535,78.561,36.707,70,36.707z M28.623,58.424c-4.438,0-8.048-3.611-8.048-8.049
	s3.61-8.047,8.048-8.047s8.048,3.609,8.048,8.047S33.061,58.424,28.623,58.424z M68.688,42.809c1.313-1.012,3.196-0.768,4.208,0.545
	s0.767,3.195-0.545,4.207c-1.313,1.012-3.196,0.768-4.208-0.545S67.375,43.82,68.688,42.809z M63.756,53.238
	c-1.012-1.314-0.768-3.197,0.545-4.209c1.313-1.012,3.196-0.768,4.208,0.545c1.011,1.313,0.767,3.197-0.545,4.207
	C66.65,54.793,64.768,54.549,63.756,53.238z M73.195,59.854c-1.313,1.012-3.195,0.768-4.207-0.545
	c-1.011-1.313-0.768-3.197,0.545-4.207c1.313-1.012,3.196-0.768,4.208,0.545S74.509,58.842,73.195,59.854z M77.563,53.332
	c-1.313,1.012-3.195,0.768-4.207-0.545c-1.011-1.313-0.768-3.195,0.545-4.207c1.313-1.012,3.196-0.768,4.208,0.545
	S78.876,52.32,77.563,53.332z M49,41.598c-0.071-2.171-0.586-4.742,1.044-6.523c1.673-1.827,4.489-1.92,6.082-3.659
	c4.638-5.066-1.768-9.814-4.364-13.688c-0.721-1.075,1.013-2.075,1.727-1.01c2.822,4.209,7.192,6.865,5.85,12.663
	c-0.57,2.465-1.983,3.93-4.265,4.94c-1.28,0.568-3.209,1.112-3.835,2.531c-0.657,1.49-0.29,3.187-0.238,4.745
	C51.043,42.888,49.042,42.884,49,41.598z"/>
</svg>
