<?xml version="1.0" encoding="utf-8"?>
<!-- Generator: Adobe Illustrator 16.0.4, SVG Export Plug-In . SVG Version: 6.00 Build 0)  -->
<!DOCTYPE svg PUBLIC "-//W3C//DTD SVG 1.1//EN" "http://www.w3.org/Graphics/SVG/1.1/DTD/svg11.dtd">
<svg version="1.1" id="Layer_1" xmlns="http://www.w3.org/2000/svg" xmlns:xlink="http://www.w3.org/1999/xlink" x="0px" y="0px"
	 width="50px" height="50px" viewBox="0 0 50 50" enable-background="new 0 0 50 50" xml:space="preserve">
<path d="M37.256,14.1H8.746c-0.999,0-1.811,0.811-1.811,1.812v22.175c0,0.998,0.812,1.811,1.811,1.811h28.51
	c1,0,1.811-0.812,1.811-1.811V15.911C39.064,14.909,38.256,14.1,37.256,14.1z M35.445,17.721v16.323l-4.141-5.026
	c-0.152-0.184-0.421-0.217-0.615-0.076l-4.816,3.516l-8.27-8.045c-0.096-0.094-0.229-0.135-0.358-0.127
	c-0.134,0.012-0.253,0.083-0.329,0.191l-6.359,9.098V17.721H35.445L35.445,17.721z M24.585,24.51c0-1.623,1.319-2.943,2.94-2.943
	c1.623,0,2.941,1.32,2.941,2.943c0,1.619-1.318,2.94-2.941,2.94C25.904,27.45,24.585,26.129,24.585,24.51z M41.707,33.333
	c-0.75,0-1.357-0.608-1.357-1.356v-19.16H12.141c-0.75,0-1.357-0.606-1.357-1.356c0-0.749,0.607-1.356,1.357-1.356h29.566
	c0.749,0,1.357,0.607,1.357,1.356v20.517C43.064,32.725,42.456,33.333,41.707,33.333z"/>
</svg>
