<?xml version="1.0" encoding="iso-8859-1"?>
<!-- Generator: Adobe Illustrator 16.0.4, SVG Export Plug-In . SVG Version: 6.00 Build 0)  -->
<!DOCTYPE svg PUBLIC "-//W3C//DTD SVG 1.1//EN" "http://www.w3.org/Graphics/SVG/1.1/DTD/svg11.dtd">
<svg version="1.1" id="Capa_1" xmlns="http://www.w3.org/2000/svg" xmlns:xlink="http://www.w3.org/1999/xlink" x="0px" y="0px"
	 width="30.61px" height="21.378px" viewBox="0 0 30.61 21.378" style="enable-background:new 0 0 30.61 21.378;"
	 xml:space="preserve">
<path style="fill-rule:evenodd;clip-rule:evenodd;fill:#231F20;" d="M14.719,20.484c-4.195-4.558-9.028-4.553-14.623,0.894
	c0-5.236-0.215-10.476,0-15.707c0.295-7.155,13.502-7.65,15.209-0.859c0.554-2.202,2.317-3.637,4.456-4.328v12.544l3.192-3.67
	l3.192,3.67V0.506c2.396,0.796,4.26,2.527,4.369,5.165c0.216,5.231,0,10.471,0,15.707c-5.595-5.447-10.429-5.452-14.623-0.894
	C15.034,21.416,15.576,21.416,14.719,20.484z"/>
<g>
</g>
<g>
</g>
<g>
</g>
<g>
</g>
<g>
</g>
<g>
</g>
<g>
</g>
<g>
</g>
<g>
</g>
<g>
</g>
<g>
</g>
<g>
</g>
<g>
</g>
<g>
</g>
<g>
</g>
</svg>
